<svg width="1440" height="395" viewBox="0 0 1440 395" fill="none" xmlns="http://www.w3.org/2000/svg">
<path fill-rule="evenodd" clip-rule="evenodd" d="M0 0H60C120 0 240 0 360 51.9815C480 103.963 600 207.926 720 200.5C840 193.074 960 74.2593 1080 44.5556C1200 14.8518 1320 74.2593 1380 103.963L1440 133.667V401H1380C1320 401 1200 401 1080 401C960 401 840 401 720 401C600 401 480 401 360 401C240 401 120 401 60 401H0V0Z" fill="#0F8BFE" fill-opacity="0.1"/>
<path fill-rule="evenodd" clip-rule="evenodd" d="M0 151H60C120 151 240 151 360 183.407C480 215.815 600 280.63 720 276C840 271.37 960 197.296 1080 178.778C1200 160.259 1320 197.296 1380 215.815L1440 234.333V401H1380C1320 401 1200 401 1080 401C960 401 840 401 720 401C600 401 480 401 360 401C240 401 120 401 60 401H0V151Z" fill="#0F8BFE" fill-opacity="0.2"/>
<path fill-rule="evenodd" clip-rule="evenodd" d="M0 273H60C120 273 240 273 360 289.593C480 306.185 600 339.37 720 337C840 334.63 960 296.704 1080 287.222C1200 277.741 1320 296.704 1380 306.185L1440 315.667V401H1380C1320 401 1200 401 1080 401C960 401 840 401 720 401C600 401 480 401 360 401C240 401 120 401 60 401H0V273Z" fill="#0F8BFE" fill-opacity="0.3"/>
</svg>
