<svg width="16" height="16" viewBox="0 0 16 16" fill="none" xmlns="http://www.w3.org/2000/svg">
<g clip-path="url(#clip0)">
<path d="M7.13803 0.357127L0.511462 6.98376C0.162634 7.33197 0.0584593 7.85667 0.247167 8.31204C0.435811 8.76773 0.88016 9.06477 1.37335 9.06477H3.69513L3.69513 14.7809C3.69513 15.4542 4.24099 16 4.91421 16H11.0858C11.759 16 12.3048 15.4542 12.3048 14.7809V9.06477H14.6266C15.1197 9.06477 15.5641 8.76773 15.7528 8.31204C15.8153 8.16142 15.8457 8.00314 15.8457 7.84597C15.8457 7.52872 15.7219 7.21677 15.4885 6.98372L8.86191 0.357094C8.38599 -0.119051 7.61398 -0.119051 7.13803 0.357127Z" fill="black" fill-opacity="0.9"/>
</g>
<defs>
<clipPath id="clip0">
<rect width="16" height="16" fill="white" transform="translate(0 16) rotate(-90)"/>
</clipPath>
</defs>
</svg>
